# xmcd CD database file
#
# Track frame offsets:
#	150
#	17337
#	42050
#	56325
#	76487
#	95010
#	109720
#	139012
#
# Disc length: 2202 seconds
#
# Revision: 0
# Processed by: cddbd v1.5.2PL0 Copyright (c) Steve Scherf et al.
# Submitted via: CDex 1.51
#
DISCID=58089808
DTITLE=Addi Münsters Old Merry Tale Jazzband - Alle Jahre wieder
DYEAR=1900
DGENRE=Jazz
TTITLE0=Medley 1
TTITLE1=Winterwonderland
TTITLE2=Medley 2
TTITLE3=Medley 3
TTITLE4=Medley 4
TTITLE5=Weihnachtliche Klänge
TTITLE6=Medley 5
TTITLE7=Medley 6
EXTD=
EXTT0=
EXTT1=
EXTT2=
EXTT3=
EXTT4=
EXTT5=
EXTT6=
EXTT7=
PLAYORDER=
